<svg width="91" height="59" viewBox="0 0 91 59" fill="none" xmlns="http://www.w3.org/2000/svg">
<path d="M78.9173 35.8428C78.9787 34.9842 79.5307 34.7388 79.96 34.6162C83.088 33.4508 86.216 32.2855 88.5467 31.4268C89.8347 30.9362 90.08 30.4455 89.6507 29.1575C86.952 21.4295 84.192 13.7015 81.4933 5.91218C81.0027 4.56284 80.6347 4.37884 79.2853 4.62417C78.4267 4.80817 77.568 4.99218 76.7707 5.11484H76.648C75.1147 5.42151 73.5813 5.72818 71.9867 6.03484C71.2507 6.15751 70.4533 6.15751 69.7787 5.97351C66.6507 5.05351 63.4613 4.13351 60.3947 3.21351L55.12 1.61884C53.464 1.12817 51.9307 0.760174 50.4587 1.18951C49.048 1.61884 47.8213 2.17084 46.84 2.84551C45.4907 3.70417 44.3867 3.70417 43.16 2.78417C40.7067 0.944173 37.824 0.576174 34.512 1.68017C30.464 2.96817 26.1707 4.19484 22.4293 5.29884L20.2213 5.91218C19.608 6.09618 18.9333 6.09617 18.3813 5.97351C16.9093 5.60551 15.376 5.23751 13.9653 4.80818L13.4747 4.68551C12.8 4.50151 12.1253 4.31751 11.4507 4.13351C10.2853 3.82684 9.79466 4.07217 9.36533 5.17617C6.36 13.1495 3.35466 21.0002 0.410663 28.8508C0.0426634 29.8935 0.16533 30.3842 1.14666 30.9362C2.496 31.7335 3.784 32.4695 5.13333 33.2668L7.40266 34.5548C7.58666 34.6775 7.77066 34.8002 7.95466 34.8615L8.752 35.3522L8.62933 35.7202C7.89333 37.8055 8.07733 39.5842 9.24266 41.2402C10.408 42.8962 12.1253 43.6935 14.272 43.6322H14.7013L14.7627 44.0615C14.9467 46.2082 15.8667 47.7415 17.4613 48.7228C19.056 49.7042 20.8347 49.8268 22.7973 49.0908L23.1653 48.9682L23.3493 49.2748C25.3733 52.6482 27.2747 53.3228 31.4453 52.1575L31.752 52.0962L31.936 52.3415C32.0587 52.4642 32.12 52.5255 32.12 52.6482C34.0827 55.7148 37.3947 56.4508 40.5227 54.4882C40.7067 54.3655 40.952 54.3042 41.1973 54.3042C41.4427 54.3042 41.688 54.3655 41.872 54.4882C42.9147 55.0402 43.9573 55.6535 44.8773 56.2055C45.4293 56.5122 45.9813 56.8188 46.5333 57.1868C48.2507 58.1682 50.2133 58.2908 51.8693 57.5548C53.5253 56.8188 54.6907 55.2242 55.12 53.3228C55.12 53.2002 55.1813 53.0775 55.2427 52.9548L55.4267 52.3415L55.856 52.5255C57.8187 53.2615 59.5973 53.0775 61.192 52.0348C62.7867 50.9922 63.6453 49.4588 63.8293 47.3122L63.8907 46.8828H64.32C66.344 46.9442 69.7787 46.3922 70.6987 41.6082L70.76 41.1788L71.312 41.2402C71.4347 41.2402 71.5573 41.3015 71.6187 41.3015C73.52 41.6695 75.2373 41.3015 76.5253 40.3202C77.9973 39.3388 78.7947 37.7442 78.9173 35.8428ZM16.296 39.7682C15.9893 40.2588 15.4373 40.5655 14.8853 40.8108C14.7013 40.9335 14.5173 40.9948 14.3333 41.1175L13.9653 41.3628L13.72 40.9948C12.7387 40.9335 11.88 40.4428 11.328 39.5842C10.776 38.7255 10.7147 37.6215 11.2053 36.7015C11.9413 35.2295 12.8 33.7575 13.9653 31.9175C14.824 30.6295 16.5413 30.2002 17.952 31.0588C19.3627 31.8562 19.8533 33.5735 19.1787 34.9842C18.32 36.4562 17.4 38.1735 16.296 39.7682ZM23.1653 45.4108C22.552 46.3922 21.5707 47.0055 20.528 47.0055C20.2213 47.0055 19.9147 46.9442 19.6693 46.8828C18.3813 46.5148 17.5227 45.3495 17.4 43.9388V43.8162L17.4613 43.6935C17.5227 43.5708 17.584 43.3868 17.6453 43.2642C17.768 42.8962 17.8907 42.5282 18.0747 42.2215C19.608 39.5842 21.2027 36.7015 23.3493 33.0828C23.84 32.2242 24.6373 31.6108 25.4347 31.3655C26.1707 31.1815 26.968 31.3042 27.704 31.7335C29.2373 32.6535 29.6053 34.4322 28.624 36.1495C26.4773 39.7068 24.76 42.7122 23.1653 45.4108ZM31.2613 48.8455C30.7707 49.7042 29.912 50.1948 28.7467 50.1948C27.6427 50.1948 26.6613 49.6428 26.1093 48.7228C25.5573 47.8642 25.5573 46.8828 25.9867 45.9628C27.52 43.0802 29.176 40.3202 30.5867 37.9895C31.384 36.7015 33.1627 36.2722 34.5733 37.1308C35.984 37.9895 36.4747 39.7068 35.7387 41.0562C34.328 43.6322 32.856 46.0855 31.2613 48.8455ZM42.608 46.2695C42.4853 46.5762 42.424 46.9442 42.24 47.2508C41.5653 48.4775 40.768 49.8268 39.9093 51.2988C39.296 52.3415 38.2533 52.9548 37.2107 52.9548C36.72 52.9548 36.2293 52.8322 35.7387 52.5868C34.2053 51.7282 33.7147 49.9495 34.6347 48.2935C35.5547 46.5762 36.352 45.2268 37.1493 44.0002C37.8853 42.8348 39.2347 42.2828 40.584 42.7122C41.8107 43.0802 42.6693 44.1842 42.792 45.5948V45.7175L42.7307 45.8402C42.6693 46.0242 42.6693 46.1468 42.608 46.2695ZM52.2373 53.9975C51.6853 54.9175 50.704 55.4695 49.6613 55.4695C49.232 55.4695 48.864 55.3468 48.496 55.2242C47.208 54.5495 45.92 53.8135 44.6933 53.0775C44.1413 52.7708 43.6507 52.4642 43.0987 52.1575L42.7307 51.9122L42.792 51.8508L45.6747 46.5148L46.104 46.7602C46.656 47.0668 47.1467 47.3735 47.6987 47.6802C48.9867 48.4162 50.3973 49.2135 51.6853 50.0722C52.7893 50.9308 53.096 52.6482 52.2373 53.9975ZM67.816 28.9735C68.736 29.5255 69.5947 30.0775 70.5147 30.6295C72.048 31.5495 73.3973 32.3468 74.7467 33.2055C76.0347 34.0028 76.5867 35.4748 76.096 36.8855C75.6053 38.2348 74.1947 39.0322 72.8453 38.8482C72.232 38.7255 71.6187 38.4188 71.2507 38.2348C66.8347 35.7202 62.4187 33.1442 58.248 30.7522L54.5067 28.6055C54.3227 28.4828 54.1387 28.3602 53.8933 28.2988C53.1573 27.9308 52.4827 28.1148 52.1147 28.7282C51.9307 29.0348 51.8693 29.4028 51.9307 29.7095C51.992 30.0162 52.2373 30.3228 52.6053 30.5682C53.5867 31.1815 54.568 31.7335 55.5493 32.2855L59.9653 34.8002C62.112 36.0268 64.32 37.3148 66.4667 38.5415C67.9387 39.4002 68.552 40.8108 68.0613 42.2828C67.7547 43.1415 67.1413 43.8162 66.344 44.1228C65.424 44.4908 64.3813 44.3682 63.4613 43.8162C61.0693 42.4668 58.6773 41.0562 56.408 39.7682L51.7467 37.0695C50.888 36.5788 49.968 36.0268 48.9867 35.4748C48.128 34.9842 47.392 35.1682 47.024 35.8428C46.5947 36.5175 46.9013 37.2535 47.6987 37.7442C48.7413 38.3575 49.784 38.9708 50.8267 39.5842L51.5013 39.9522C54.1387 41.4855 56.8987 43.0188 59.536 44.6135C60.2107 45.0428 60.8853 45.7788 61.192 46.5762C61.6213 47.6802 61.2533 48.8455 60.2107 49.7042C59.5973 50.1948 58.984 50.4402 58.3093 50.4402C57.88 50.4402 57.3893 50.3175 56.96 50.1335C56.408 49.8882 55.9173 49.5815 55.4267 49.2748L54.936 48.9682C51.7467 47.1282 48.5573 45.2882 45.368 43.4482L45.2453 43.3868C45 43.2028 44.632 43.0802 44.448 42.7735C43.2213 40.9948 41.5653 40.1362 39.48 40.1362C39.4187 40.1362 39.296 40.1362 39.2347 40.1362H38.8053L38.744 39.7068C38.192 35.9655 36.0453 34.1255 32.2427 34.1255H31.8747L31.752 33.6962C31.2613 31.1815 29.912 29.5868 27.7653 28.9122C25.5573 28.2375 23.5947 28.7895 21.7547 30.5682L21.3867 30.9362L21.08 30.5068C19.424 28.4828 17.5227 27.7468 15.1307 28.1762C12.8613 28.6055 11.6347 30.2615 10.408 32.6535L10.1627 33.0828L8.50666 32.1015C6.912 31.1815 5.37866 30.2615 3.784 29.3415C3.29333 29.0348 3.416 28.2375 3.53866 27.9308C4.82666 24.4962 6.11466 20.9388 7.40266 17.5655L7.464 17.3815L11.4507 6.83217L13.6587 7.38417C15.192 7.75217 16.6027 8.12017 18.0747 8.54951C18.8107 8.79484 19.5467 8.73351 20.2827 8.54951C25.1893 7.07751 30.096 5.60551 35.616 4.01084C38.192 3.27484 39.848 3.52017 41.5653 4.99217L42.056 5.42151L41.9333 5.48284L39.6027 6.83217C38.3147 7.56817 36.9653 8.36551 35.616 9.16284C34.0213 10.0828 33.04 11.3708 32.7333 13.0268C32.304 15.2962 32.9173 17.1362 34.696 18.6082C36.4133 20.0188 38.4373 20.3255 40.6453 19.4055C42.3627 18.7308 44.08 17.9335 45.736 17.1362L46.288 16.8908C47.024 16.5842 47.576 16.5842 48.2507 17.0748C49.7227 17.9948 51.3173 18.9148 52.7893 19.8348L53.648 20.3255C53.7707 20.3868 53.8933 20.4482 54.016 20.5095L61.8667 25.2935C62.1733 25.4775 62.48 25.5388 62.7867 25.4162C63.0933 25.3548 63.4 25.1095 63.584 24.8642C63.952 24.2508 63.768 23.5148 63.1547 23.1468L55.4267 18.4855C55.2427 18.3628 55.12 18.2402 54.9973 18.1788C54.0773 17.6268 53.096 17.0135 52.176 16.4615C51.072 15.7868 49.6613 14.9895 48.3733 14.1308C47.76 13.7628 47.2693 13.7015 46.656 14.0082C45.2453 14.6215 43.8347 15.2348 42.3013 15.9095L40.2773 16.7682C40.032 16.8908 39.7253 17.0135 39.4187 17.1362C37.824 17.6268 36.2293 17.0135 35.5547 15.6028C34.88 14.1308 35.432 12.4748 36.904 11.6162C38.6827 10.5735 40.584 9.46951 42.3627 8.48818L44.632 7.20017C45 7.01617 45.368 6.77084 45.6747 6.58684L45.8587 6.46417C46.7787 5.97351 47.6987 5.42151 48.5573 4.86951C50.336 3.70417 52.176 3.52018 54.3227 4.19484C56.1013 4.74684 57.9413 5.29884 59.7813 5.78951C62.664 6.64817 65.6693 7.50684 68.552 8.48818C70.4533 9.10151 72.1707 8.85618 73.888 8.48818C74.992 8.24284 76.0347 8.05884 77.2 7.81351L79.1627 7.44551L86.8293 29.2802L86.3387 29.5868C86.1547 29.6482 86.032 29.7708 85.9093 29.8322L85.1733 30.1388C83.1493 30.9362 81.0027 31.7335 78.9173 32.4695C78.6107 32.5922 77.9973 32.5922 77.6293 32.3468C77.2 32.1015 76.832 31.7948 76.464 31.4882C76.0347 31.1815 75.6053 30.8135 75.1147 30.5682C73.2747 29.4028 71.3733 28.2988 69.5947 27.2562L69.2267 27.0108C68.368 26.5202 67.5707 26.5815 67.1413 27.2562C66.712 27.7468 66.9573 28.4828 67.816 28.9735Z" fill="#5AB2DB" stroke="white" stroke-width="0.3597" stroke-miterlimit="10"/>
</svg>
