<svg xmlns="http://www.w3.org/2000/svg" width="100" height="77" fill="none" viewBox="0 0 100 77">
  <path fill="#232F5F" d="m40.078 29.784 9.87-18.755.026-.052.026.052 4.068 7.727 7.834 14.975 7.335 2.812-9.363-17.787L50 0l-9.873 18.756-9.338 17.74 7.209-2.765 2.08-3.947Z"/>
  <path fill="#232F5F" d="M59.874 18.756 50 0v11.03l4.068 7.727 7.834 14.975 7.335 2.812-9.363-17.787Z" opacity=".05"/>
  <path fill="#232F5F" d="m57.953 15.11.588 1.116c5.438.512 9.122 1.498 9.122 2.634 0 1.662-7.908 3.008-17.663 3.008-9.754 0-17.663-1.346-17.663-3.008 0-1.136 3.685-2.122 9.122-2.634l.588-1.117c-9.87.627-16.982 2.382-16.982 4.455 0 2.597 11.165 4.7 24.935 4.7s24.935-2.103 24.935-4.7c0-2.07-7.112-3.828-16.982-4.455ZM3.469 73.28C1.158 71.084 0 68.175 0 64.559c0-3.617 1.158-6.526 3.469-8.722 2.31-2.196 5.28-3.294 8.91-3.294 3.628 0 6.598 1.098 8.909 3.294 2.31 2.196 3.468 5.105 3.468 8.722 0 3.617-1.157 6.525-3.468 8.72-2.311 2.197-5.281 3.295-8.91 3.295-3.628 0-6.598-1.098-8.91-3.294Zm3.744-14.02c-1.307 1.38-1.962 3.146-1.962 5.298 0 2.151.652 3.92 1.962 5.297 1.306 1.38 3.029 2.066 5.169 2.066 2.14 0 3.863-.69 5.17-2.066 1.306-1.376 1.96-3.142 1.96-5.297 0-2.156-.654-3.918-1.96-5.298-1.307-1.376-3.03-2.066-5.17-2.066s-3.863.69-5.17 2.066Zm45.381-4.328-3.468 3.78c-.387-.493-.93-.871-1.62-1.131a5.784 5.784 0 0 0-2.043-.386c-.84 0-1.619.2-2.333.597-.715.397-1.068.987-1.068 1.762 0 .56.193 1.028.584 1.406.387.379.89.68 1.507.905.618.227 1.303.442 2.059.646.755.204 1.51.456 2.266.76a9.76 9.76 0 0 1 2.058 1.113c.614.442 1.117 1.061 1.507 1.859.387.797.585 1.732.585 2.812 0 2.433-.842 4.295-2.527 5.586-1.686 1.291-3.793 1.937-6.32 1.937-3.066 0-5.638-.957-7.71-2.875l3.598-3.94a5.544 5.544 0 0 0 1.961 1.584 5.508 5.508 0 0 0 2.445.583c.908 0 1.716-.212 2.43-.631.715-.42 1.069-1.005 1.069-1.762 0-.646-.265-1.195-.793-1.647-.529-.453-1.195-.787-1.995-1.002a29.16 29.16 0 0 1-2.59-.838c-.93-.345-1.794-.72-2.594-1.132-.8-.408-1.463-1.038-1.995-1.888-.528-.85-.793-1.87-.793-3.053 0-2.326.86-4.143 2.576-5.456 1.72-1.314 3.773-1.97 6.174-1.97 2.873 0 5.218.797 7.03 2.389v-.008Zm13.316 21.06v-22.87h5.054v22.87H65.91Zm34.057-21.06-3.469 3.78c-.387-.493-.93-.871-1.619-1.131a5.783 5.783 0 0 0-2.043-.386c-.841 0-1.619.2-2.334.597-.714.397-1.068.987-1.068 1.762 0 .56.194 1.028.585 1.406.387.379.89.68 1.507.905a24.77 24.77 0 0 0 2.058.646 20.09 20.09 0 0 1 2.266.76c.756.3 1.445.676 2.059 1.113.614.442 1.116 1.061 1.507 1.859.387.797.584 1.732.584 2.812 0 2.433-.841 4.295-2.527 5.586-1.686 1.291-3.792 1.937-6.32 1.937-3.066 0-5.638-.957-7.71-2.875l3.598-3.94a5.544 5.544 0 0 0 1.962 1.584 5.508 5.508 0 0 0 2.445.583c.908 0 1.716-.212 2.43-.631.715-.42 1.068-1.005 1.068-1.762 0-.646-.264-1.195-.793-1.647-.528-.453-1.194-.787-1.994-1.002-.8-.215-1.664-.493-2.59-.838a23.57 23.57 0 0 1-2.595-1.132c-.8-.408-1.462-1.038-1.994-1.888-.529-.85-.793-1.87-.793-3.053 0-2.326.86-4.143 2.575-5.456 1.72-1.314 3.774-1.97 6.174-1.97 2.873 0 5.218.797 7.03 2.389v-.008Z"/>
</svg>
