<svg width="90" height="71" viewBox="0 0 90 71" fill="none" xmlns="http://www.w3.org/2000/svg">
<path d="M88.6693 43.35V38.75C88.6693 34.6407 88.6693 30.5927 88.6693 26.4833C88.6693 25.502 88.3627 25.0727 87.5653 24.95V24.8887H77.5067C77.2 24.766 77.0773 24.4593 76.9547 24.1527C76.9547 24.0913 76.9547 24.0913 76.8933 24.03C70.944 7.04067 53.1573 -2.40467 35.6773 2.134C32.672 2.93133 29.7893 4.09666 27.0907 5.69133C26.6 5.998 26.2933 6.30466 26.1707 6.67266C26.1093 6.918 26.1707 7.22466 26.3547 7.53133C26.8453 8.39 27.704 8.14466 28.3173 7.77666C28.3787 7.71533 28.5013 7.654 28.5627 7.654C28.6853 7.59266 28.808 7.53133 28.9307 7.47C31.2 6.24333 33.3467 5.32333 35.6773 4.71L36.0453 4.58733L35.8 4.83266C33.224 7.40866 31.2 10.598 29.4827 14.7073C29.36 14.9527 28.8693 15.1367 28.5627 15.1367C26.9067 15.1367 25.2507 15.1367 23.5947 15.1367H19.7307L19.8533 14.9527C19.976 14.83 20.0373 14.7073 20.0987 14.646C20.2213 14.462 20.2827 14.3393 20.4053 14.278C20.712 13.9713 21.0187 13.6647 21.3253 13.358C22 12.6833 22.6747 12.07 23.288 11.334C23.5333 11.0273 23.7173 10.414 23.656 10.046C23.5947 9.73933 23.104 9.37133 22.7973 9.31C22.4293 9.24866 21.9387 9.43266 21.5707 9.73933C17.1547 13.6647 13.9653 18.4487 12.064 23.9073C11.8187 24.6433 11.4507 24.8887 10.7147 24.8887H10.6533C8.32267 24.8273 5.992 24.8887 3.72267 24.8887H1.944C0.778668 24.8887 0.349335 25.2567 0.349335 26.422C0.349335 32.3713 0.349335 38.3207 0.349335 44.27C0.349335 45.4353 0.778668 45.8033 1.944 45.8033C2.61867 45.8033 3.232 45.8033 3.90667 45.8033C6.11467 45.8033 8.44533 45.8033 10.7147 45.8033H10.776C11.5733 45.8033 11.88 46.0487 12.1867 46.846C14.824 54.4513 20.16 60.8913 27.2133 65.062C34.328 69.2327 42.5467 70.7047 50.336 69.2327C63.2773 66.8407 72.2933 59.174 77.1387 46.5393C77.3227 45.9873 77.568 45.742 78.2427 45.742C81.0027 45.8033 83.824 45.742 86.584 45.742H87.3813C88.424 45.742 88.8533 45.3127 88.8533 44.27C88.8533 44.0247 88.8533 43.7793 88.8533 43.534L88.6693 43.35ZM45.736 24.95V17.59H45.7973C45.8587 17.59 45.9813 17.59 46.0427 17.59C46.472 17.5287 46.9013 17.59 47.3307 17.59C48.8027 17.59 50.336 17.59 51.8693 17.59C53.5867 17.59 55.304 17.59 57.0213 17.59C57.696 17.59 58.0027 17.8353 58.1867 18.4487C58.5547 19.9207 58.984 21.3927 59.352 22.9873C59.536 23.6007 59.6587 24.214 59.8427 24.8273L59.904 24.95H45.736ZM70.1467 17.5287C70.76 17.5287 71.128 17.7127 71.496 18.2647C72.968 20.5953 73.9493 22.6807 74.624 24.766L74.6853 24.8887H62.296V24.8273C62.2347 24.4593 62.112 24.0913 62.0507 23.7233C61.8667 22.8647 61.6827 22.0673 61.4987 21.27C61.3147 20.4727 61.0693 19.6753 60.8853 18.878C60.7627 18.51 60.7013 18.142 60.5787 17.7127V17.59H60.7013C60.824 17.59 60.8853 17.59 61.008 17.59C61.56 17.5287 62.0507 17.5287 62.5413 17.5287C63.7067 17.5287 64.8107 17.5287 66.0373 17.5287C67.3253 17.59 68.7973 17.5287 70.1467 17.5287ZM53.3413 4.83266C57.2053 5.078 66.5893 11.2113 68.8587 14.9527L68.92 15.0753H68.736C68.6747 15.0753 68.6133 15.0753 68.552 15.0753C68.4293 15.0753 68.3067 15.0753 68.184 15.0753C67.3253 15.0753 66.4667 15.0753 65.608 15.0753C63.8907 15.0753 62.0507 15.0753 60.272 15.0753C59.8427 15.0753 59.4747 14.9527 59.2907 14.462C57.696 10.5367 55.672 7.40866 53.2187 4.894L53.0347 4.71L53.3413 4.83266ZM45.6747 3.54466H45.7973C47.76 3.85133 49.4773 4.77133 51.256 6.42733C53.4027 8.45133 55.1813 11.0273 56.776 14.646C56.776 14.7073 56.776 14.7687 56.776 14.8913C56.776 14.9527 56.776 14.9527 56.776 15.014V15.1367H45.6747V3.54466ZM32.0587 14.9527C32.9787 10.1073 38.9893 3.974 43.0373 3.54466H43.16V15.0753H32.0587V14.9527ZM29.36 23.294C29.8507 21.5153 30.3413 19.798 30.832 18.0807C30.8933 17.8353 31.3227 17.59 31.6293 17.59C35.248 17.59 38.928 17.59 42.5467 17.59C42.792 17.59 43.2827 17.8967 43.2827 18.142C43.344 19.9207 43.344 21.638 43.2827 23.478V24.8887H28.9307L29.36 23.294ZM14.088 24.766C14.3333 24.214 14.64 23.662 14.8853 23.11C15.4987 21.822 16.112 20.6567 16.664 19.43C17.3387 17.958 18.2587 17.406 19.9147 17.5287C21.816 17.6513 23.7173 17.59 25.68 17.59C26.5387 17.59 27.336 17.59 28.1947 17.59H28.3173L26.5387 24.95H14.0267L14.088 24.766ZM17.584 52.8567C16.1733 50.71 15.0693 48.502 14.2107 46.0487L14.1493 45.926H26.4773L28.256 53.1633H28.1333C28.072 53.1633 27.9493 53.1633 27.888 53.1633C27.704 53.1633 27.5813 53.2247 27.3973 53.2247H26.5387C25.496 53.2247 24.392 53.2247 23.3493 53.2247C21.7547 53.2247 20.0987 53.2247 18.504 53.2247C18.1973 53.286 17.768 53.102 17.584 52.8567ZM35.6773 66.2273C29.36 64.326 24.1467 60.8913 19.792 55.862L19.6693 55.678H25.1893C25.496 55.678 25.8027 55.678 26.1093 55.678C26.9067 55.678 27.7653 55.678 28.5627 55.678C28.8693 55.678 29.36 55.9233 29.4213 56.1687C31.1387 60.278 33.1627 63.406 35.7387 65.982L35.984 66.2273H35.6773ZM43.16 67.454L43.0373 67.3927C42.7307 67.27 42.4853 67.2087 42.1787 67.086C41.5653 66.902 41.0133 66.718 40.4613 66.4727C38.744 65.614 37.2107 64.3873 35.7387 62.486C34.2053 60.5847 32.9787 58.438 31.936 55.9233L31.8747 55.8007H43.16V67.454ZM43.2213 52.734C43.2213 52.9793 42.792 53.286 42.608 53.286C40.768 53.286 38.8667 53.286 37.0267 53.286C35.1867 53.286 33.3467 53.286 31.568 53.286C31.3227 53.286 30.9547 53.0407 30.8933 52.7953C30.4027 51.078 29.912 49.3607 29.4213 47.582L28.992 45.9873H43.2827V47.398C43.2213 49.238 43.2213 50.9553 43.2213 52.734ZM11.512 43.4727H2.68V27.4033H51.256H67.6933V43.4727H11.512ZM59.904 45.9873L59.536 47.5207C59.0453 49.2993 58.616 51.0167 58.1253 52.734C58.064 52.9793 57.696 53.286 57.4507 53.286C56.04 53.286 54.568 53.286 53.1573 53.286C51.1333 53.286 49.1093 53.286 47.1467 53.286H46.0427C45.9813 53.286 45.92 53.286 45.8587 53.2247C45.8587 53.2247 45.7973 53.1633 45.736 53.1633H45.6747V45.9873H59.904ZM45.7973 67.2087H45.6747V55.7393H56.776V55.862C56.224 60.2167 49.5387 67.086 45.7973 67.2087ZM68.9813 55.9233C64.688 60.8913 59.5973 64.2647 53.4027 66.1047L53.096 66.166L53.28 65.9207C53.5867 65.5527 53.8933 65.1233 54.2 64.7553C54.8747 63.8967 55.5493 63.0993 56.1013 62.2407C56.96 60.7687 57.7573 59.2353 58.5547 57.7633C58.8 57.2727 59.0453 56.782 59.2907 56.3527L59.352 56.2913C59.536 55.9233 59.72 55.6167 60.2107 55.6167C62.112 55.6167 64.0747 55.6167 65.9147 55.6167C66.7733 55.6167 67.5707 55.6167 68.4293 55.6167C68.4907 55.6167 68.552 55.6167 68.6747 55.678C68.736 55.678 68.7973 55.678 68.92 55.7393H69.104L68.9813 55.9233ZM74.6853 46.11C74.5627 46.4167 74.44 46.7233 74.3173 46.9687C74.072 47.6433 73.8267 48.2567 73.52 48.87C72.8453 50.2193 72.1093 51.5073 71.3733 52.734C71.1893 52.9793 70.8827 53.286 70.576 53.286C68.6747 53.286 66.712 53.286 64.7493 53.286C64.0747 53.286 63.4 53.286 62.7253 53.286H60.5787L62.3573 45.926H74.7467L74.6853 46.11ZM70.208 43.4113V27.4033H86.216V43.4113H70.208Z" fill="#5AB2DB" stroke="white" stroke-width="0.5803" stroke-miterlimit="10"/>
</svg>
