<svg width="82" height="76" viewBox="0 0 82 76" fill="none" xmlns="http://www.w3.org/2000/svg">
<path d="M81.5653 32.936C80.216 24.288 73.3466 18.032 64.6373 17.3573C64.0853 17.296 63.84 17.112 63.5946 16.6213C59.424 6.624 49.6106 0 37.7733 0C33.3573 0 28.2666 1.472 23.7893 4.53867C21.8266 5.888 20.1093 7.66667 18.392 9.26133C17.7786 9.81333 17.84 10.5493 18.392 11.04C18.8826 11.5307 19.5573 11.4693 20.1706 10.856C20.416 10.6107 20.6 10.3653 20.784 10.1813C26.9786 3.864 34.4613 1.22667 43.1706 2.82133C52.1253 4.47733 58.2586 9.81333 61.7546 18.216C62.2453 19.3813 62.6133 19.5653 63.84 19.688C65.128 19.8107 66.3546 19.9333 67.5813 20.24C79.112 23.368 83.2213 37.352 75.3093 46.368C75.1866 46.4907 75.1866 46.552 75.064 46.6747C74.0213 47.9627 72.7333 49.0053 71.2 49.7413C71.0773 49.7413 70.648 49.9253 70.5866 49.9867C68.3786 51.0907 66.048 51.5813 63.5333 51.5813C52.8613 51.52 42.128 51.5813 31.456 51.52C25.936 51.52 20.416 51.4587 14.9573 51.52C6.61597 51.5813 1.46397 43.9147 3.24264 36.8613C4.46931 32.016 7.65864 29.0107 12.504 27.9067C13.6693 27.6613 14.0986 27.232 14.16 26.128C14.344 22.3867 15.2026 18.8293 16.9813 15.5173C17.4106 14.72 17.2266 13.984 16.6133 13.6773C15.9386 13.3707 15.3253 13.616 14.896 14.4133C13.24 17.6027 12.1973 20.976 11.952 24.5947C11.8906 25.3307 11.6453 25.6373 10.9093 25.8827C5.26664 27.416 1.34131 32.1387 0.605305 38.272C-0.0693615 43.608 2.81331 49.2507 7.65864 52.072C9.98931 53.4213 12.504 53.912 15.2026 53.912C16.7973 53.912 18.392 53.912 20.1093 53.912C20.1093 55.6293 20.1093 57.224 20.1093 58.88C20.1093 61.088 20.1093 61.088 17.9013 61.088C17.2266 61.088 16.92 60.9653 16.6133 60.2907C15.7546 58.512 13.7306 57.592 11.8293 58.0213C9.86664 58.4507 8.39464 60.168 8.39464 62.1307C8.33331 64.0933 9.62131 65.872 11.4613 66.4853C13.3626 67.0987 15.5706 66.3013 16.4293 64.5227C16.92 63.6027 17.472 63.3573 18.392 63.48C18.4533 63.48 18.5146 63.48 18.576 63.48C21.2133 63.48 22.5626 62.192 22.5626 59.5547C22.5626 57.7147 22.5626 55.8747 22.5626 53.9733C25.0773 53.9733 27.5306 53.9733 30.0453 53.9733C30.0453 54.464 30.0453 54.8933 30.0453 55.384V64.2773C30.0453 65.4427 30.0453 66.608 30.0453 67.7733C30.0453 69.9813 30.0453 69.9813 27.8373 70.0427C27.1626 70.0427 26.7946 69.8587 26.488 69.184C25.5066 67.16 23.0533 66.3013 20.968 67.16C18.8826 68.0187 17.84 70.4107 18.5146 72.5573C19.2506 74.704 21.4586 75.9307 23.6666 75.44C25.3226 75.0107 26.304 73.968 26.856 72.3733C27.5306 72.3733 28.2053 72.3733 28.88 72.3733C30.904 72.3733 32.376 70.9013 32.376 68.8773C32.376 67.344 32.376 65.7493 32.376 64.216V55.384C32.376 54.8933 32.376 54.464 32.376 53.9733C34.952 53.9733 37.4666 53.9733 39.9813 53.9733C39.9813 54.28 39.9813 54.5867 39.9813 54.8933C39.9813 58.0213 39.9813 61.2107 39.9813 64.3387C39.9813 65.2587 40.4106 65.7493 41.0853 65.7493C41.8213 65.8107 42.312 65.2587 42.312 64.3387C42.312 61.1493 42.312 57.96 42.312 54.832C42.312 54.5253 42.312 54.28 42.312 54.0347C44.888 54.0347 47.4026 54.0347 49.9173 54.0347C49.9173 54.4027 49.9173 54.7093 49.9173 55.0773C49.9173 59.6773 49.9173 64.2773 49.9173 68.8773C49.9173 70.9013 51.3893 72.3733 53.4133 72.4347C53.7813 72.4347 54.1493 72.496 54.5173 72.4347C55.192 72.312 55.4986 72.5573 55.8053 73.232C56.664 75.0107 58.688 75.9307 60.5893 75.5013C62.552 75.072 63.9626 73.3547 64.024 71.392C64.0853 69.4293 62.7973 67.6507 60.9573 67.0373C59.056 66.4853 56.9093 67.2213 55.9893 69C55.56 69.92 55.008 70.1653 54.088 70.0427C53.9653 70.0427 53.904 70.0427 53.7813 70.0427C52.616 70.0427 52.3093 69.736 52.3093 68.5093C52.3093 63.9093 52.3093 59.3707 52.3093 54.7707C52.3093 54.5253 52.3093 54.28 52.3706 54.0347C54.8853 54.0347 57.2773 54.0347 59.792 54.0347C59.792 54.3413 59.792 54.5867 59.792 54.832C59.792 56.5493 59.792 58.328 59.792 60.0453C59.792 62.008 61.264 63.4187 63.2266 63.48C63.9013 63.48 64.576 63.48 65.312 63.48C65.4346 63.7867 65.5573 64.032 65.68 64.2773C66.6 65.9947 68.5626 66.976 70.4026 66.5467C72.4266 66.1173 73.8373 64.4613 73.8986 62.4987C73.96 60.4747 72.672 58.6347 70.7706 58.0827C68.8693 57.5307 66.7226 58.2053 65.864 59.984C65.3733 61.0267 64.6986 61.2107 63.7786 61.088C63.656 61.088 63.5333 61.088 63.4106 61.088C62.552 61.088 62.184 60.72 62.184 59.8C62.184 58.0213 62.184 56.1813 62.184 54.4027C62.184 54.28 62.2453 54.096 62.2453 54.0347C63.656 53.9733 65.0053 53.9733 66.3546 53.7893C68.256 53.6667 72.0586 52.072 72.5493 51.8267C74.2666 50.9067 75.7386 49.68 76.9653 48.1467C77.0266 48.0853 77.088 48.0853 77.1493 47.9627C80.8293 43.6693 82.424 38.64 81.5653 32.936ZM12.5653 64.2773C11.5226 64.216 10.6026 63.296 10.664 62.2533C10.664 61.2107 11.584 60.2907 12.688 60.352C13.7306 60.352 14.6506 61.272 14.6506 62.3147C14.5893 63.4187 13.6693 64.3387 12.5653 64.2773ZM22.44 73.1707C21.3973 73.1707 20.4773 72.2507 20.4773 71.1467C20.4773 70.0427 21.4586 69.1227 22.5626 69.184C23.6053 69.2453 24.5253 70.1653 24.464 71.208C24.4026 72.312 23.4826 73.232 22.44 73.1707ZM59.608 69.2453C60.6506 69.2453 61.5706 70.104 61.632 71.1467C61.6933 72.2507 60.7733 73.1707 59.6693 73.1707C58.6266 73.1707 57.7066 72.2507 57.7066 71.208C57.6453 70.1653 58.504 69.2453 59.608 69.2453ZM69.4826 60.352C70.5253 60.352 71.4453 61.272 71.4453 62.3147C71.4453 63.4187 70.5253 64.3387 69.4213 64.2773C68.3786 64.2773 67.4586 63.3573 67.52 62.2533C67.52 61.2107 68.44 60.352 69.4826 60.352Z" fill="#5AB2DB"/>
</svg>
