<svg width="76" height="73" viewBox="0 0 76 73" fill="none" xmlns="http://www.w3.org/2000/svg">
<path d="M54.0693 59.88C47.3227 59.88 40.6987 59.88 33.952 59.88C34.0747 60.1253 34.1973 60.3093 34.32 60.4933C35.8533 63.4987 35.7307 66.4427 33.7067 69.2027C31.744 71.84 28.984 72.8827 25.7333 72.1467C22.4213 71.4107 20.336 69.264 19.6 65.952C18.864 62.824 20.2747 59.512 23.0347 57.7333C23.464 57.4267 23.648 57.1813 23.464 56.6293C20.0293 44.1787 16.656 31.7893 13.2827 19.3387C11.9947 14.616 10.8293 9.89333 9.54133 5.17067C9.48 4.92533 9.41866 4.68 9.35733 4.43467C6.59733 4.43467 3.89866 4.43467 1.07733 4.43467C1.07733 3.26933 1.07733 2.16533 1.07733 1C1.50666 1 1.936 1 2.36533 1C5.00266 1 7.64 1 10.3387 1C11.6267 1 12.1173 1.42933 12.4853 2.59467C13.712 7.01067 14.8773 11.4267 16.104 15.904C16.1653 16.088 16.2267 16.3333 16.288 16.5787C16.5947 16.5787 16.9013 16.5787 17.208 16.5787C35.6693 16.5787 54.192 16.5787 72.6533 16.5787C73.144 16.5787 73.696 16.64 74.1253 16.824C74.8613 17.192 75.168 17.9893 74.8613 18.9093C73.6347 23.5093 72.408 28.1093 71.1813 32.7093C69.9547 37.3093 68.728 41.9093 67.5013 46.5093C66.52 50.128 64.0667 52.0907 60.264 52.0907C49.5307 52.0907 38.7973 52.0907 28.064 52.0907C27.3893 52.0907 26.7147 52.0293 25.9787 51.968C26.3467 53.3787 26.7147 54.7893 27.144 56.2613C27.4507 56.2613 27.7573 56.2613 28.064 56.2613C38.92 56.2613 49.776 56.2613 60.632 56.2613C65.1093 56.2613 68.728 59.9413 68.6667 64.3573C68.6053 67.6693 66.52 70.6133 63.392 71.7787C60.264 72.8827 56.768 71.9627 54.6213 69.3867C52.536 66.9333 52.168 63.376 53.7627 60.4933C53.7627 60.3707 53.8853 60.1867 54.0693 59.88ZM17.0853 20.136C17.1467 20.3813 17.208 20.6267 17.208 20.7493C19.5387 29.152 21.8693 37.616 24.2 46.0187C24.6907 47.92 25.9173 48.7787 27.88 48.7787C38.6747 48.7787 49.4693 48.7787 60.3253 48.7787C62.4107 48.7787 63.576 47.92 64.128 45.8347C66.2747 37.8 68.4213 29.7653 70.5067 21.7307C70.6293 21.1787 70.8133 20.6267 70.936 20.0133C52.9653 20.136 35.056 20.136 17.0853 20.136ZM60.632 68.9573C63.208 68.9573 65.232 66.9333 65.232 64.3573C65.232 61.8427 63.1467 59.8187 60.6933 59.8187C58.1787 59.8187 56.0933 61.904 56.0933 64.4187C56.0933 66.9333 58.1173 68.9573 60.632 68.9573ZM27.328 68.9573C29.904 68.9573 31.928 66.9333 31.8667 64.3573C31.8667 61.8427 29.8427 59.8187 27.328 59.8187C24.8133 59.8187 22.728 61.8427 22.7893 64.4187C22.8507 66.9333 24.8133 68.9573 27.328 68.9573Z" fill="#5AB2DB" stroke="white" stroke-width="1.1908" stroke-miterlimit="10"/>
</svg>
